<svg width="16" height="14" viewBox="0 0 16 14" fill="none" xmlns="http://www.w3.org/2000/svg">
<path d="M13.5943 4.66055C13.0993 4.66191 12.6169 4.81252 12.2132 5.09174C11.8095 5.37096 11.5042 5.76512 11.3392 6.22018H0.799663C0.587579 6.22018 0.384182 6.30234 0.234216 6.44859C0.0842499 6.59483 0 6.79318 0 7C0 7.20682 0.0842499 7.40517 0.234216 7.55141C0.384182 7.69766 0.587579 7.77982 0.799663 7.77982H11.3392C11.4859 8.18444 11.7439 8.54192 12.085 8.81313C12.4261 9.08434 12.8371 9.25882 13.2731 9.31748C13.7091 9.37614 14.1532 9.31673 14.5568 9.14573C14.9605 8.97474 15.3081 8.69875 15.5617 8.34799C15.8153 7.99722 15.9651 7.58518 15.9946 7.15698C16.0241 6.72877 15.9323 6.30089 15.7292 5.92017C15.526 5.53945 15.2194 5.22055 14.8429 4.99839C14.4663 4.77622 14.0344 4.65935 13.5943 4.66055ZM13.5943 7.77982C13.4361 7.77982 13.2815 7.73408 13.15 7.64839C13.0185 7.56271 12.916 7.44092 12.8555 7.29842C12.795 7.15593 12.7791 6.99914 12.81 6.84787C12.8408 6.6966 12.917 6.55765 13.0288 6.44859C13.1407 6.33953 13.2831 6.26526 13.4383 6.23517C13.5934 6.20508 13.7542 6.22052 13.9003 6.27954C14.0464 6.33857 14.1713 6.43852 14.2592 6.56676C14.347 6.695 14.3939 6.84577 14.3939 7C14.3939 7.20682 14.3097 7.40517 14.1597 7.55141C14.0098 7.69766 13.8064 7.77982 13.5943 7.77982Z" fill="#0D988C"/>
<path d="M0.799663 3.10092H1.74327C1.91136 3.55255 2.21797 3.94276 2.62143 4.21852C3.02489 4.49428 3.50563 4.64221 3.99832 4.64221C4.491 4.64221 4.97174 4.49428 5.3752 4.21852C5.77866 3.94276 6.08527 3.55255 6.25337 3.10092H15.1936C15.4057 3.10092 15.6091 3.01876 15.759 2.87252C15.909 2.72627 15.9933 2.52792 15.9933 2.3211C15.9933 2.11428 15.909 1.91593 15.759 1.76969C15.6091 1.62345 15.4057 1.54129 15.1936 1.54129H6.25337C6.08527 1.08966 5.77866 0.699446 5.3752 0.423688C4.97174 0.147931 4.491 0 3.99832 0C3.50563 0 3.02489 0.147931 2.62143 0.423688C2.21797 0.699446 1.91136 1.08966 1.74327 1.54129H0.799663C0.587579 1.54129 0.384182 1.62345 0.234216 1.76969C0.0842499 1.91593 0 2.11428 0 2.3211C0 2.52792 0.0842499 2.72627 0.234216 2.87252C0.384182 3.01876 0.587579 3.10092 0.799663 3.10092ZM3.99832 1.54129C4.15647 1.54129 4.31108 1.58702 4.44258 1.67271C4.57409 1.7584 4.67658 1.88019 4.73711 2.02268C4.79763 2.16517 4.81347 2.32197 4.78261 2.47324C4.75176 2.62451 4.6756 2.76346 4.56376 2.87252C4.45193 2.98158 4.30944 3.05585 4.15432 3.08594C3.9992 3.11603 3.83842 3.10058 3.6923 3.04156C3.54618 2.98254 3.42129 2.88259 3.33342 2.75435C3.24555 2.62611 3.19865 2.47534 3.19865 2.3211C3.19865 2.11428 3.2829 1.91593 3.43287 1.76969C3.58283 1.62345 3.78623 1.54129 3.99832 1.54129Z" fill="#0D988C"/>
<path d="M15.1936 10.8991H9.45202C9.28393 10.4474 8.97731 10.0572 8.57386 9.78148C8.1704 9.50572 7.68966 9.35779 7.19697 9.35779C6.70428 9.35779 6.22354 9.50572 5.82008 9.78148C5.41662 10.0572 5.11001 10.4474 4.94192 10.8991H0.799663C0.587579 10.8991 0.384182 10.9812 0.234216 11.1275C0.0842499 11.2737 0 11.4721 0 11.6789C0 11.8857 0.0842499 12.0841 0.234216 12.2303C0.384182 12.3766 0.587579 12.4587 0.799663 12.4587H4.94192C5.11001 12.9103 5.41662 13.3006 5.82008 13.5763C6.22354 13.8521 6.70428 14 7.19697 14C7.68966 14 8.1704 13.8521 8.57386 13.5763C8.97731 13.3006 9.28393 12.9103 9.45202 12.4587H15.1936C15.4057 12.4587 15.6091 12.3766 15.759 12.2303C15.909 12.0841 15.9933 11.8857 15.9933 11.6789C15.9933 11.4721 15.909 11.2737 15.759 11.1275C15.6091 10.9812 15.4057 10.8991 15.1936 10.8991ZM7.19697 12.4587C7.03881 12.4587 6.8842 12.413 6.7527 12.3273C6.62119 12.2416 6.5187 12.1198 6.45818 11.9773C6.39765 11.8348 6.38181 11.678 6.41267 11.5268C6.44353 11.3755 6.51969 11.2365 6.63152 11.1275C6.74336 11.0184 6.88584 10.9442 7.04096 10.9141C7.19608 10.884 7.35687 10.8994 7.50299 10.9584C7.64911 11.0175 7.774 11.1174 7.86186 11.2457C7.94973 11.3739 7.99663 11.5247 7.99663 11.6789C7.99663 11.8857 7.91238 12.0841 7.76242 12.2303C7.61245 12.3766 7.40905 12.4587 7.19697 12.4587Z" fill="#0D988C"/>
</svg>
