<svg width="16" height="18" viewBox="0 0 16 18" fill="none" xmlns="http://www.w3.org/2000/svg">
<path d="M15.4844 7.35976L8.63116 0.266274C8.54852 0.181901 8.45021 0.114932 8.3419 0.0692308C8.23358 0.0235294 8.11739 0 8.00005 0C7.88271 0 7.76653 0.0235294 7.65821 0.0692308C7.54989 0.114932 7.45158 0.181901 7.36894 0.266274L0.515655 7.36877C0.349822 7.53806 0.218852 7.73904 0.130349 7.96002C0.0418458 8.181 -0.00242645 8.41758 0.000102545 8.65604V16.1996C-0.000586183 16.6604 0.173233 17.104 0.485766 17.4389C0.798298 17.7738 1.22575 17.9747 1.68009 18H14.32C14.7744 17.9747 15.2018 17.7738 15.5143 17.4389C15.8269 17.104 16.0007 16.6604 16 16.1996V8.65604C16.0007 8.17257 15.8158 7.70776 15.4844 7.35976ZM6.22228 16.1996V10.7985H9.77782V16.1996H6.22228ZM14.2222 16.1996H11.5556V9.8983C11.5556 9.65955 11.4619 9.43059 11.2952 9.26177C11.1285 9.09295 10.9024 8.99811 10.6667 8.99811H5.3334C5.09765 8.99811 4.87156 9.09295 4.70487 9.26177C4.53817 9.43059 4.44452 9.65955 4.44452 9.8983V16.1996H1.77787V8.62003L8.00005 2.18368L14.2222 8.65604V16.1996Z" fill="#0D988C"/>
</svg>
