<svg width="16" height="16" viewBox="0 0 16 16" fill="none" xmlns="http://www.w3.org/2000/svg">
<path d="M10.3396 15.9988H10.2864C10.0915 15.987 9.90594 15.911 9.75859 15.7826C9.61124 15.6542 9.51036 15.4806 9.47166 15.2887L7.975 8.0108L0.713084 6.51083C0.521325 6.47266 0.347558 6.37197 0.218879 6.22446C0.0901991 6.07695 0.0138398 5.89092 0.00170752 5.69536C-0.0104247 5.4998 0.0423521 5.30572 0.151808 5.14337C0.261265 4.98102 0.421248 4.85953 0.606812 4.79785L14.7764 0.0671833C14.9355 0.00136495 15.1102 -0.0165891 15.2793 0.0155159C15.4483 0.0476209 15.6044 0.128394 15.7284 0.247963C15.8524 0.367531 15.939 0.520715 15.9775 0.688791C16.016 0.856867 16.0049 1.03255 15.9454 1.19438L11.2252 15.3953C11.1635 15.579 11.0436 15.7374 10.8837 15.8464C10.7238 15.9554 10.5327 16.0089 10.3396 15.9988ZM4.31747 5.43689L8.91374 6.3777C9.08555 6.41091 9.2437 6.4944 9.36821 6.61761C9.49273 6.74082 9.57803 6.89824 9.61336 7.06999L10.5432 11.6764L13.6606 2.3127L4.31747 5.43689Z" fill="black"/>
</svg>
