<svg width="14" height="18" viewBox="0 0 14 18" fill="none" xmlns="http://www.w3.org/2000/svg">
<path d="M1.14029 18C0.877735 18 0.625932 17.895 0.440278 17.7081C0.254623 17.5212 0.150324 17.2677 0.150324 17.0033L0.00182858 2.39203C-0.010092 2.09536 0.0363616 1.79925 0.138518 1.52072C0.240674 1.24219 0.396516 0.986749 0.597082 0.769077C0.797648 0.551405 1.03898 0.375801 1.3072 0.252366C1.57541 0.128932 1.86522 0.0601012 2.15996 0.0498338L11.6537 0C11.9489 0.00518952 12.2401 0.0688629 12.5107 0.187383C12.7814 0.305903 13.0263 0.476948 13.2313 0.690748C13.4363 0.904548 13.5974 1.15691 13.7055 1.43343C13.8137 1.70995 13.8666 2.0052 13.8614 2.30233L14 16.9136C14.0017 17.0883 13.9577 17.2603 13.8726 17.4125C13.7875 17.5647 13.6641 17.6917 13.5149 17.7807C13.3644 17.8682 13.1937 17.9143 13.0199 17.9143C12.8461 17.9143 12.6754 17.8682 12.5249 17.7807L6.88209 14.6312L1.64517 17.8505C1.4901 17.9377 1.31757 17.9888 1.14029 18ZM6.8425 12.4684C7.01451 12.4688 7.18406 12.5097 7.33748 12.588L12.0002 15.1894L11.8814 2.28239C11.8814 2.08306 11.7527 1.94352 11.6735 1.95349L2.16985 2.04319C2.09066 2.04319 1.98176 2.17276 1.98176 2.37209L2.10056 15.2292L6.33761 12.608C6.49149 12.5193 6.6652 12.4713 6.8425 12.4684Z" fill="#0D988C"/>
</svg>
