<svg width="18" height="18" viewBox="0 0 18 18" fill="none" xmlns="http://www.w3.org/2000/svg">
<path d="M5.95202 17.9914C5.5129 17.9888 5.08652 17.8436 4.73717 17.5776L2.87441 16.1923C2.44454 15.8572 2.15932 15.3704 2.07731 14.8317C1.99531 14.293 2.12275 13.7434 2.43346 13.2957C2.59786 13.053 2.70234 12.7748 2.73832 12.484C2.7743 12.1931 2.74075 11.8978 2.64044 11.6225L2.58644 11.4785C2.51659 11.2293 2.38893 11 2.21381 10.8093C2.03869 10.6186 1.82105 10.4719 1.57857 10.3811H1.43459C0.908937 10.2044 0.474236 9.82751 0.224877 9.33233C-0.0244827 8.83716 -0.0683668 8.26364 0.102754 7.73631L0.840662 5.39743C0.908589 5.12644 1.03365 4.87309 1.20747 4.65434C1.38129 4.43559 1.59986 4.25649 1.84854 4.12903C2.08012 4.00975 2.33351 3.93868 2.59337 3.92013C2.85323 3.90157 3.11415 3.93592 3.36035 4.02108C3.62841 4.11127 3.91445 4.13464 4.1936 4.08918C4.47276 4.04372 4.73658 3.93079 4.96215 3.76021L5.07913 3.67025C5.28331 3.50739 5.44833 3.3008 5.56202 3.06571C5.67572 2.83062 5.73519 2.57302 5.73605 2.3119V2.096C5.73363 1.54558 5.94883 1.01649 6.33479 0.623927C6.72075 0.231363 7.24622 0.00711226 7.79679 0H10.0915C10.3594 0.000721629 10.6245 0.0543379 10.8716 0.15777C11.1187 0.261201 11.3429 0.412411 11.5313 0.602713C11.9275 1.00553 12.1476 1.54908 12.1432 2.11399V2.36587C12.1387 2.61393 12.1925 2.85959 12.3004 3.08304C12.4082 3.30649 12.5671 3.50147 12.7642 3.65226L12.8632 3.72423C13.0651 3.87562 13.3007 3.97596 13.5499 4.01669C13.799 4.05741 14.0543 4.03732 14.294 3.95811L14.5999 3.85916C14.8592 3.77326 15.133 3.74043 15.4052 3.76263C15.6774 3.78483 15.9424 3.86161 16.1842 3.98838C16.4261 4.11514 16.6399 4.28931 16.813 4.50049C16.9861 4.71166 17.1149 4.95552 17.1916 5.21751L17.9025 7.48443C18.067 8.00834 18.0221 8.57558 17.7771 9.06704C17.5321 9.55851 17.1062 9.93598 16.5887 10.1202L16.4087 10.1831C16.144 10.2698 15.9046 10.4201 15.7116 10.6209C15.5186 10.8217 15.3779 11.0667 15.3019 11.3346C15.2302 11.5836 15.2132 11.8451 15.2521 12.1013C15.2909 12.3575 15.3846 12.6023 15.5268 12.8189L15.7608 13.1607C16.0711 13.6109 16.1973 14.1627 16.1137 14.703C16.03 15.2432 15.7428 15.731 15.3109 16.0663L13.5021 17.4607C13.2836 17.6277 13.0331 17.7483 12.7662 17.815C12.4993 17.8817 12.2216 17.893 11.9502 17.8483C11.6787 17.8037 11.4193 17.7039 11.1879 17.5553C10.9564 17.4066 10.7579 17.2122 10.6044 16.9839L10.4965 16.831C10.3491 16.6096 10.148 16.4291 9.91193 16.3064C9.67588 16.1837 9.41259 16.1228 9.14662 16.1293C8.89283 16.1359 8.64414 16.202 8.42061 16.3223C8.19708 16.4426 8.00497 16.6138 7.85978 16.822L7.65281 17.1188C7.49933 17.3487 7.30038 17.5447 7.06823 17.6948C6.83608 17.8449 6.57565 17.9458 6.30298 17.9914C6.18627 18.0029 6.06873 18.0029 5.95202 17.9914ZM2.1635 8.65388C2.67165 8.83501 3.13018 9.13287 3.50217 9.52348C3.87416 9.91409 4.14922 10.3865 4.30523 10.9028V11.0108C4.49955 11.5475 4.56335 12.1227 4.49137 12.6889C4.4194 13.2551 4.2137 13.7961 3.89128 14.2672C3.83437 14.3301 3.80285 14.4118 3.80285 14.4966C3.80285 14.5814 3.83437 14.6631 3.89128 14.726L5.82604 16.1923C5.85128 16.2121 5.88047 16.2263 5.91166 16.2339C5.94284 16.2415 5.97529 16.2424 6.00683 16.2364C6.03836 16.2304 6.06826 16.2178 6.09451 16.1993C6.12075 16.1809 6.14274 16.157 6.159 16.1293L6.36597 15.8325C6.67813 15.3816 7.09501 15.0131 7.58087 14.7585C8.06673 14.504 8.60709 14.371 9.15562 14.371C9.70416 14.371 10.2445 14.504 10.7304 14.7585C11.2162 15.0131 11.6331 15.3816 11.9453 15.8325L12.0533 15.9944C12.0919 16.0492 12.1497 16.0877 12.2152 16.1023C12.2453 16.1068 12.2759 16.1051 12.3053 16.0973C12.3347 16.0896 12.3622 16.076 12.3862 16.0574L14.24 14.654C14.3049 14.6025 14.3476 14.5281 14.3593 14.4462C14.371 14.3642 14.3509 14.2808 14.303 14.2132L14.069 13.8714C13.7641 13.427 13.563 12.9198 13.4805 12.3874C13.3979 11.8549 13.4361 11.3106 13.5921 10.7949C13.7502 10.2527 14.0363 9.75654 14.4262 9.34796C14.8161 8.93938 15.2985 8.63039 15.8328 8.44698L16.0128 8.38401C16.0878 8.35397 16.1479 8.29549 16.1799 8.22134C16.2119 8.14718 16.2133 8.06337 16.1837 7.98819L15.4818 5.74826C15.465 5.70907 15.4403 5.67371 15.4094 5.64433C15.3785 5.61495 15.3419 5.59216 15.3019 5.57734C15.2754 5.56391 15.2461 5.55691 15.2164 5.55691C15.1867 5.55691 15.1574 5.56391 15.1309 5.57734L14.8249 5.6763C14.3073 5.84705 13.756 5.8896 13.2184 5.80029C12.6807 5.71097 12.1728 5.49246 11.7383 5.16354L11.7023 5.08258C11.2854 4.76694 10.9473 4.35897 10.7147 3.89073C10.482 3.42248 10.3611 2.90669 10.3615 2.38386V2.105C10.3631 2.01829 10.3308 1.93438 10.2715 1.87111C10.2197 1.82434 10.1523 1.79866 10.0825 1.79914H7.79679C7.76013 1.80143 7.72428 1.81093 7.69131 1.82711C7.65833 1.84328 7.62887 1.8658 7.60462 1.89338C7.58038 1.92097 7.56182 1.95306 7.55001 1.98783C7.53821 2.0226 7.53338 2.05936 7.53583 2.096V2.32089C7.53588 2.85797 7.41258 3.38789 7.17544 3.86982C6.93829 4.35175 6.59362 4.77281 6.168 5.10057L6.05101 5.19053C5.59182 5.54002 5.05369 5.77123 4.48403 5.86378C3.91438 5.95634 3.33069 5.9074 2.78442 5.72127C2.74354 5.70756 2.69931 5.70756 2.65843 5.72127C2.60765 5.75212 2.5694 5.79991 2.55045 5.85621L1.80354 8.20409C1.77751 8.28406 1.78361 8.37101 1.82055 8.44656C1.8575 8.52211 1.9224 8.58032 2.00152 8.6089L2.1635 8.65388Z" fill="black"/>
<path d="M9.00264 12.1442C8.37971 12.1442 7.77076 11.9596 7.25281 11.6136C6.73486 11.2676 6.33117 10.7759 6.09278 10.2006C5.8544 9.62528 5.79203 8.99222 5.91355 8.38147C6.03508 7.77072 6.33505 7.20971 6.77553 6.76939C7.21601 6.32906 7.77722 6.0292 8.38818 5.90771C8.99915 5.78623 9.63243 5.84858 10.2079 6.08688C10.7835 6.32518 11.2754 6.72873 11.6214 7.2465C11.9675 7.76427 12.1522 8.373 12.1522 8.99571C12.1522 9.83075 11.8204 10.6316 11.2298 11.222C10.6391 11.8125 9.83797 12.1442 9.00264 12.1442ZM9.00264 7.64636C8.73567 7.64636 8.4747 7.7255 8.25272 7.87376C8.03074 8.02203 7.85773 8.23277 7.75556 8.47934C7.6534 8.7259 7.62666 8.99721 7.67875 9.25896C7.73083 9.52071 7.85939 9.76114 8.04817 9.94985C8.23694 10.1386 8.47746 10.2671 8.7393 10.3191C9.00114 10.3712 9.27255 10.3445 9.5192 10.2424C9.76585 10.1402 9.97666 9.96728 10.125 9.74538C10.2733 9.52348 10.3525 9.26259 10.3525 8.99571C10.3525 8.63784 10.2103 8.29463 9.95712 8.04157C9.70397 7.78852 9.36064 7.64636 9.00264 7.64636Z" fill="black"/>
</svg>
