<svg width="24" height="24" viewBox="0 0 24 24" fill="none" xmlns="http://www.w3.org/2000/svg">
<path d="M1.94025 8C1.94025 6.34315 3.28339 5 4.94025 5H6.39527C7.28075 5 8.1412 5.29382 8.84175 5.8354L10.5611 7.1646C11.2617 7.70618 12.1221 8 13.0076 8H18.3432C20.0001 8 21.3432 9.34315 21.3432 11V19C21.3432 20.6569 20.0001 22 18.3432 22H4.94025C3.2834 22 1.94025 20.6569 1.94025 19V8Z" stroke="#EDEDED" stroke-width="1.5"/>
<path d="M5.82086 5H13.9038C15.0166 5 16.079 5.4635 16.8359 6.27914L18.4328 8" stroke="#EDEDED" stroke-width="1.5"/>
<path d="M14.3857 14.8284L11.9899 12.3589C11.7976 12.1607 11.4858 12.1607 11.2936 12.3589L8.89773 14.8284" stroke="#EDEDED" stroke-width="1.5" stroke-linecap="round"/>
<path d="M11.6417 13V18" stroke="#EDEDED" stroke-width="1.5" stroke-linecap="round"/>
</svg>
